<svg xmlns="http://www.w3.org/2000/svg"
  width="30"
  height="30"
  viewBox="0 0 30 30">
  <g fill="none"
    fillRule="evenodd"
    stroke="currentColor"
    strokeWidth="2">
    <path d="M8 17h4c.552 0 1 .195 1 .436v5.128c0 .24-.448.436-1 .436H8c-.552 0-1-.195-1-.436v-5.128c0-.24.448-.436 1-.436zM18 17h4c.552 0 1 .195 1 .436v5.128c0 .24-.448.436-1 .436h-4c-.552 0-1-.195-1-.436v-5.128c0-.24.448-.436 1-.436zM18 7h4c.552 0 1 .195 1 .436v5.128c0 .24-.448.436-1 .436h-4c-.552 0-1-.195-1-.436V7.436c0-.24.448-.436 1-.436zM8 7h4c.552 0 1 .195 1 .436v5.128c0 .24-.448.436-1 .436H8c-.552 0-1-.195-1-.436V7.436C7 7.196 7.448 7 8 7z" />
  </g>
</svg>